PathFileType	4	(X/Y/Z)	C:/Users/opensim2020/Desktop/walking_exp_matlab/subject06_walking13_straight_03_cyclic.trc																																																																																																																																																				
DataRate	CameraRate	NumFrames	NumMarkers	Units	OrigDataRate	OrigDataStartFrame	OrigNumFrames																																																																																																																																																
100	100	4	50	mm	100	2249	111																																																																																																																																																
Frame#	Time	LFHD			RFHD			LBHD			RBHD			C7			T10			CLAV			STRN			RBAK			LSHO			LUPA			LELB			LFRM			LWRA			LWRB			LFIN			RSHO			RUPA			RELB			RFRM			RWRA			RWRB			RFIN			LASI			RASI			LPSI			RPSI			LTHI			LKNE			LTIB			LANK			LHEE			LTOE			RTHI			RKNE			RTIB			RANK			RHEE			RTOE			*39			*40			*41			*42			*43			*44			*45			*46			*47			*48			*49		
		X1	Y1	Z1	X2	Y2	Z2	X3	Y3	Z3	X4	Y4	Z4	X5	Y5	Z5	X6	Y6	Z6	X7	Y7	Z7	X8	Y8	Z8	X9	Y9	Z9	X10	Y10	Z10	X11	Y11	Z11	X12	Y12	Z12	X13	Y13	Z13	X14	Y14	Z14	X15	Y15	Z15	X16	Y16	Z16	X17	Y17	Z17	X18	Y18	Z18	X19	Y19	Z19	X20	Y20	Z20	X21	Y21	Z21	X22	Y22	Z22	X23	Y23	Z23	X24	Y24	Z24	X25	Y25	Z25	X26	Y26	Z26	X27	Y27	Z27	X28	Y28	Z28	X29	Y29	Z29	X30	Y30	Z30	X31	Y31	Z31	X32	Y32	Z32	X33	Y33	Z33	X34	Y34	Z34	X35	Y35	Z35	X36	Y36	Z36	X37	Y37	Z37	X38	Y38	Z38	X39	Y39	Z39	X40	Y40	Z40	X41	Y41	Z41	X42	Y42	Z42	X43	Y43	Z43	X44	Y44	Z44	X45	Y45	Z45	X46	Y46	Z46	X47	Y47	Z47	X48	Y48	Z48	X49	Y49	Z49	X50	Y50	Z50
																																																																																																																																																							
42	0.41	-71.21813	1646.65747	-1050.02258	-84.0638	1632.98755	-919.16241	-205.3602	1598.69617	-1064.71765	-216.59453	1589.93799	-936.2182	-218.34386	1439.20093	-1006.89447	-265.37222	1110.90588	-995.10419	-109.98975	1358.36487	-1002.6297	-74.176	1183.66821	-1006.33472	-299.11575	1271.89099	-922.33704	-161.41452	1391.34045	-1166.44849	-216.73155	1197.62671	-1231.974	-257.87915	1092.23816	-1237.90808	-279.89938	943.50629	-1262.16821	-246.60698	815.0957	-1227.06567	-310.38318	828.63104	-1258.02002	-296.25864	738.00183	-1259.2561	-159.6662	1394.28162	-844.46954	-157.0778	1202.42151	-742.9151	-107.01704	1093.33655	-718.27185	-27.285	1006.21051	-700.1355	102.39346	933.45074	-737.34613	62.37949	902.94348	-693.64917	138.35384	869.08484	-692.26025	-85.70445	952.37122	-1101.64441	-93.90166	952.88312	-883.30048	-246.41881	973.29663	-1082.04895	-244.47783	978.60242	-913.03479	-96.49351	640.35193	-1179.8667	-38.54308	487.77905	-1152.71606	7.37387	237.83502	-1149.979	72.42876	74.76764	-1117.19824	46.13196	49.31762	-1065.94934	218.52937	88.1477	-1128.77563	-183.38901	619.1217	-843.62726	-203.09969	493.87729	-867.21381	-324.28384	249.68271	-877.72766	-386.72601	75.28155	-932.97681	-430.92532	57.94128	-978.24817	-239.63922	30.13504	-929.79254	-174.54878	1688.5166	-999.76544	NaN	NaN	NaN	NaN	NaN	NaN	NaN	NaN	NaN	NaN	NaN	NaN	NaN	NaN	NaN	NaN	NaN	NaN	NaN	NaN	NaN	NaN	NaN	NaN	NaN	NaN	NaN	NaN	NaN	NaN
43	0.42	-60.80251	1644.98572	-1050.83203	-73.71135	1631.44189	-919.93243	-195.07077	1597.11084	-1065.50195	-206.26793	1588.39441	-936.92902	-207.94444	1437.36609	-1007.51593	-254.61963	1109.03125	-995.67938	-99.52538	1356.776	-1003.19348	-63.36861	1182.18323	-1006.70819	-288.6593	1270.09766	-922.96686	-151.3363	1389.49329	-1167.08667	-208.26222	1196.40723	-1232.1604	-250.39075	1091.28967	-1237.77185	-273.52017	942.69012	-1261.91089	-240.82599	814.11249	-1227.73389	-305.15283	828.12799	-1257.53979	-291.53412	737.43115	-1259.28003	-149.37416	1392.5144	-845.10022	-146.33058	1200.68945	-743.52698	-95.77543	1091.89929	-718.74866	-15.36252	1005.45599	-700.57611	114.9819	934.12787	-737.74207	75.48623	903.13629	-693.95172	151.62152	870.31165	-692.44409	-74.5713	951.00354	-1101.7738	-83.37988	951.17358	-883.54724	-235.26068	971.62085	-1083.19226	-233.99007	976.79077	-914.12549	-84.62023	638.67078	-1180.16699	-28.22453	486.02768	-1152.3053	20.94081	236.64792	-1148.97986	89.10729	74.71975	-1116.08398	63.47402	49.23899	-1064.55469	235.6208	90.3884	-1128.89709	-174.48341	617.92621	-844.10889	-195.39157	492.71069	-867.15729	-320.50089	250.40671	-877.74982	-385.94623	77.01729	-932.39795	-430.42542	60.30892	-977.62439	-239.57643	30.04302	-929.74304	-164.19911	1686.9032	-1000.56158	NaN	NaN	NaN	NaN	NaN	NaN	NaN	NaN	NaN	NaN	NaN	NaN	NaN	NaN	NaN	NaN	NaN	NaN	NaN	NaN	NaN	NaN	NaN	NaN	NaN	NaN	NaN	NaN	NaN	NaN
44	0.43	-50.5037	1643.28333	-1051.70789	-63.33688	1630.02197	-920.78387	-184.68962	1595.59766	-1066.2981	-195.88133	1586.98975	-937.78931	-197.52261	1435.70752	-1008.19562	-243.77173	1107.32336	-996.32214	-88.9603	1355.32581	-1003.78943	-52.37295	1180.88696	-1007.11084	-278.21692	1268.41528	-923.69775	-141.03557	1387.71985	-1167.75208	-199.27486	1195.09839	-1232.35681	-242.18675	1090.22253	-1237.84473	-266.85458	941.92419	-1261.92432	-234.40033	813.11047	-1228.42542	-299.21573	827.45056	-1257.15466	-286.13535	736.78699	-1259.46838	-139.2244	1390.85254	-845.71271	-135.78825	1198.95898	-744.24316	-84.62988	1090.46924	-719.50885	-3.7637	1004.57025	-701.17664	127.18383	934.41223	-738.11768	87.66135	902.86121	-694.73273	164.2282	870.99652	-692.98657	-63.50278	949.73547	-1102.15454	-72.74211	949.58899	-883.97418	-224.04128	970.04932	-1084.46497	-223.32207	975.03314	-915.41882	-72.60798	637.06207	-1180.24683	-17.57956	484.55063	-1151.84338	33.37794	235.40257	-1147.94604	103.51471	74.21175	-1115.02771	78.37247	48.7248	-1063.31824	250.25189	90.96378	-1128.36914	-165.42857	616.82458	-844.61066	-186.82744	491.61624	-867.42017	-316.35913	251.33817	-877.72357	-385.02921	78.95578	-931.72723	-429.81152	63.04052	-976.85815	-239.43091	30.01556	-929.6618	-153.82008	1685.39905	-1001.42822	NaN	NaN	NaN	NaN	NaN	NaN	NaN	NaN	NaN	NaN	NaN	NaN	NaN	NaN	NaN	NaN	NaN	NaN	NaN	NaN	NaN	NaN	NaN	NaN	NaN	NaN	NaN	NaN	NaN	NaN
45	0.44	-39.93837	1642.11511	-1052.5686	-52.88285	1628.73474	-921.66449	-174.23816	1594.25354	-1067.21558	-185.3739	1585.68652	-938.65826	-187.00577	1434.21008	-1008.96429	-232.85286	1105.73474	-997.03247	-78.23882	1354.05334	-1004.38416	-41.42855	1179.64331	-1007.53699	-267.85269	1266.74854	-924.62286	-130.57773	1386.0249	-1168.46338	-189.73009	1193.76147	-1232.65369	-233.53856	1089.17822	-1237.80566	-259.35812	941.06757	-1262.02563	-227.15627	812.0899	-1229.04858	-292.55164	826.81476	-1256.87781	-279.9664	736.07977	-1259.78638	-129.1497	1389.32654	-846.32275	-125.20405	1197.31592	-745.16205	-73.63036	1089.06189	-720.38818	7.50761	1003.54144	-701.91656	138.89366	934.29736	-738.59497	99.52224	902.36017	-695.47247	176.16699	871.2774	-693.07788	-52.2666	948.61078	-1102.74683	-61.88918	948.13141	-884.52344	-212.59799	968.61328	-1085.85376	-212.55179	973.44067	-916.81024	-60.45192	635.56213	-1180.11914	-6.32332	483.45685	-1151.36206	44.9218	234.14618	-1146.91968	115.63332	73.05323	-1113.71021	90.72584	47.68831	-1062.02429	262.40115	90.16022	-1127.39514	-155.911	615.90747	-845.33319	-178.15573	490.71689	-867.68689	-311.6167	252.43605	-877.51239	-383.8613	81.35044	-930.81335	-429.03677	66.29593	-975.85547	-239.32162	29.89732	-929.60999	-143.39029	1684.10266	-1002.41498	NaN	NaN	NaN	NaN	NaN	NaN	NaN	NaN	NaN	NaN	NaN	NaN	NaN	NaN	NaN	NaN	NaN	NaN	NaN	NaN	NaN	NaN	NaN	NaN	NaN	NaN	NaN	NaN	NaN	NaN
